<?xml version="1.0" encoding="UTF-8" standalone="no"?>
<svg
   xmlns:dc="http://purl.org/dc/elements/1.1/"
   xmlns:cc="http://creativecommons.org/ns#"
   xmlns:rdf="http://www.w3.org/1999/02/22-rdf-syntax-ns#"
   xmlns:svg="http://www.w3.org/2000/svg"
   xmlns="http://www.w3.org/2000/svg"
   xmlns:sodipodi="http://sodipodi.sourceforge.net/DTD/sodipodi-0.dtd"
   xmlns:inkscape="http://www.inkscape.org/namespaces/inkscape"
   version="1.1"
   id="Layer_2"
   x="0px"
   y="0px"
   width="75"
   height="75"
   viewBox="5 -10 75 101.25"
   enable-background="new 0 0 100 100"
   xml:space="preserve"
   inkscape:version="0.91 r13725"
   sodipodi:docname="rv.svg"><metadata
     id="metadata37"><rdf:RDF><cc:Work
         rdf:about=""><dc:format>image/svg+xml</dc:format><dc:type
           rdf:resource="http://purl.org/dc/dcmitype/StillImage" /><dc:title></dc:title></cc:Work></rdf:RDF></metadata><defs
     id="defs35" /><sodipodi:namedview
     pagecolor="#ffffff"
     bordercolor="#666666"
     borderopacity="1"
     objecttolerance="10"
     gridtolerance="10"
     guidetolerance="10"
     inkscape:pageopacity="0"
     inkscape:pageshadow="2"
     inkscape:window-width="909"
     inkscape:window-height="509"
     id="namedview33"
     showgrid="false"
     showborder="false"
     fit-margin-top="0"
     fit-margin-left="0"
     fit-margin-right="0"
     fit-margin-bottom="0"
     inkscape:zoom="2.36"
     inkscape:cx="63.078348"
     inkscape:cy="31.297818"
     inkscape:window-x="40"
     inkscape:window-y="48"
     inkscape:window-maximized="0"
     inkscape:current-layer="Layer_2" /><rect
     style="opacity:1;fill:#e6e6e6;fill-opacity:1;stroke:none;stroke-width:2.70000005;stroke-miterlimit:4;stroke-dasharray:none;stroke-opacity:1"
     id="rect4217"
     width="101.24999"
     height="101.25"
     x="-7.9629612"
     y="-10" /><g
     id="g3"
     transform="translate(-7.2870031,-8.1985)"><circle
       cx="85.688004"
       cy="61.243"
       r="2.112"
       id="circle5"
       style="fill:none" /><path
       d="m 7.963,35.468 c -0.035,0.065 -0.08,0.168 -0.125,0.324 -0.287,1.001 -1.23,9.901 -1.773,15.433 l 1.363,5.32 c 0.1,0.119 0.307,0.292 0.667,0.292 0.004,0 0.006,0 0.01,0 0.396,-0.005 0.655,-0.014 0.824,-0.021 L 7.366,50.834 8.475,38.358 C 8.415,37.697 8.59,36.592 9.571,35.775 9.707,35.662 9.836,35.561 9.962,35.469 l -1.999,0 z"
       id="path7"
       inkscape:connector-curvature="0"
       style="fill:none" /><rect
       x="61.416"
       y="42.695"
       width="5.0970001"
       height="16.940001"
       id="rect9"
       style="fill:none" /><circle
       cx="43.418999"
       cy="61.243"
       r="2.112"
       id="circle11"
       style="fill:none" /><path
       d="m 21.38,34.216 c -0.062,-0.094 -0.118,-0.157 -0.16,-0.197 l -7.114,0 0,0.909 7.707,-0.027 C 21.647,34.632 21.492,34.387 21.38,34.216 Z"
       id="path13"
       inkscape:connector-curvature="0"
       style="fill:none" /><path
       d="M 65.177,34.215 C 65.115,34.121 65.06,34.058 65.018,34.018 l -7.113,0 0,0.751 7.608,-0.027 c -0.128,-0.204 -0.245,-0.389 -0.336,-0.527 z"
       id="path15"
       inkscape:connector-curvature="0"
       style="fill:none" /><path
       d="M 93.521,52.368 93.506,52.319 C 93.413,52.188 84.133,39.135 83.141,37.781 c -0.386,-0.525 -0.803,-0.636 -1.086,-0.636 -0.019,0 -0.032,0 -0.042,10e-4 l -0.132,0.034 -0.076,-0.017 -70.104,0.252 c -0.001,0 -0.001,0 -0.002,0 -0.073,0 -0.136,-0.002 -0.192,-0.005 -0.062,0.042 -0.172,0.122 -0.347,0.269 -0.229,0.19 -0.222,0.41 -0.221,0.412 l 0.034,0.175 -1.099,12.359 2.13,8.15 5.167,0.861 20.919,0 c 0.497,-1.866 2.074,-3.902 5.257,-3.902 l 0.087,0 c 2.731,0.03 4.128,1.415 4.82,2.571 0.279,0.469 0.462,0.933 0.583,1.331 l 10.1,0 0,-17.216 c 0,-1.215 0.988,-2.204 2.203,-2.204 l 5.647,0 c 1.214,0 2.203,0.988 2.203,2.204 l 0,17.216 11.337,0 c 0.447,-1.83 1.779,-4.149 4.783,-4.359 0.16,-0.01 0.32,-0.016 0.477,-0.016 3.224,0 4.814,2.342 5.428,4.236 l 1.17,-0.157 c 0.385,-1.274 1.156,-3.83 1.556,-5.193 0.303,-1.033 -0.047,-1.585 -0.134,-1.701 l -0.086,-0.078 z m -66.399,-6 c 0,1.215 -0.988,2.204 -2.204,2.204 l -10.926,0 c -1.216,0 -2.204,-0.989 -2.204,-2.204 l 0,-3.168 c 0,-1.215 0.988,-2.204 2.204,-2.204 l 10.926,0 c 1.216,0 2.204,0.989 2.204,2.204 l 0,3.168 z M 57.79,43.843 c 0,1.215 -0.989,2.204 -2.203,2.204 l -3.995,0 c -1.215,0 -2.204,-0.989 -2.204,-2.204 l 0,-1.102 c 0,-1.215 0.988,-2.204 2.204,-2.204 l 3.995,0 c 1.214,0 2.203,0.989 2.203,2.204 l 0,1.102 z m 18.593,1.607 c 0,1.215 -0.988,2.204 -2.203,2.204 l -1.653,0 c -1.215,0 -2.204,-0.989 -2.204,-2.204 l 0,-3.03 c 0,-1.215 0.989,-2.204 2.204,-2.204 l 1.653,0 c 1.215,0 2.203,0.988 2.203,2.204 l 0,3.03 z m 10.288,1.351 c -0.335,0.553 -0.948,0.871 -1.681,0.871 l -4.98,0 c -1.215,0 -2.203,-0.989 -2.203,-2.204 l 0,-3.03 c 0,-1.216 0.988,-2.204 2.203,-2.204 l 2.238,-0.021 c 0.057,0 0.1,-0.003 0.14,-0.006 0.088,-0.006 0.172,-0.01 0.255,-0.01 1.037,0 1.653,0.666 2.261,1.667 l 0.015,0.027 1.753,3.064 c 0.329,0.633 0.329,1.305 -10e-4,1.846 z"
       id="path17"
       inkscape:connector-curvature="0"
       style="fill:none" /><path
       d="m 95.494,50.836 c -0.71,-1 -9.369,-13.179 -10.353,-14.521 -1.093,-1.489 -2.522,-1.649 -3.086,-1.649 -0.14,0 -0.255,0.008 -0.342,0.019 L 68.42,34.732 C 68.075,34.169 67.541,33.3 67.25,32.857 66.583,31.836 65.789,31.608 65.562,31.563 l -0.12,-0.024 -7.836,0 c -0.992,0 -1.531,0.433 -1.809,0.796 -0.384,0.501 -0.446,1.11 -0.372,1.577 l 0,0.867 -30.707,0.11 c -0.333,-0.545 -0.945,-1.545 -1.265,-2.032 -0.668,-1.021 -1.462,-1.249 -1.689,-1.294 l -0.12,-0.024 -7.835,0 c -0.993,0 -1.532,0.433 -1.809,0.796 -0.157,0.206 -0.258,0.429 -0.321,0.653 l -4.017,0 C 7.496,32.989 7.037,33.023 6.553,33.378 6.047,33.747 5.679,34.328 5.454,35.107 5.016,36.64 3.813,48.782 3.576,51.199 l -0.021,0.218 1.558,6.078 0.063,0.122 c 0.323,0.634 1.301,1.698 2.92,1.698 0.01,0 0.02,0 0.029,0 0.6,-0.006 1.029,-0.022 1.315,-0.055 0.042,-0.005 0.083,-0.012 0.124,-0.018 l 0.448,1.714 6.953,1.157 21.668,0 c 0.413,2.269 2.401,3.995 4.786,3.995 2.386,0 4.374,-1.727 4.788,-3.995 l 12.934,0 5.647,0 14.114,0 c 0.412,2.269 2.401,3.995 4.786,3.995 2.402,0 4.4,-1.749 4.795,-4.039 l 3.612,-0.485 0.23,-0.763 c 0.013,-0.041 1.248,-4.113 1.795,-5.98 0.655,-2.237 -0.31,-3.627 -0.626,-4.005 z m -37.59,-16.817 7.113,0 c 0.042,0.04 0.098,0.103 0.159,0.197 0.091,0.137 0.208,0.322 0.336,0.527 l -7.608,0.027 0,-0.751 z m -43.797,0 7.114,0 c 0.042,0.04 0.098,0.103 0.16,0.197 0.111,0.171 0.267,0.417 0.433,0.685 l -7.707,0.027 0,-0.909 z M 8.476,38.358 7.367,50.833 8.93,56.815 c -0.169,0.008 -0.428,0.017 -0.824,0.021 -0.004,0 -0.006,0 -0.01,0 -0.36,0 -0.567,-0.173 -0.667,-0.292 L 6.066,51.224 C 6.608,45.692 7.552,36.792 7.839,35.791 7.883,35.635 7.928,35.532 7.964,35.467 l 2,0 C 9.838,35.559 9.709,35.66 9.573,35.773 8.591,36.592 8.417,37.697 8.476,38.358 Z m 34.943,24.996 c -1.165,0 -2.111,-0.947 -2.111,-2.112 0,-1.164 0.946,-2.111 2.111,-2.111 1.165,0 2.112,0.947 2.112,2.111 10e-4,1.165 -0.947,2.112 -2.112,2.112 z m 23.094,-3.718 -5.097,0 0,-16.94 5.097,0 0,16.94 z m 19.175,3.718 c -1.164,0 -2.112,-0.947 -2.112,-2.112 0,-1.164 0.948,-2.111 2.112,-2.111 1.165,0 2.111,0.947 2.111,2.111 10e-4,1.165 -0.945,2.112 -2.111,2.112 z m 8.053,-9.208 c -0.399,1.363 -1.171,3.919 -1.556,5.193 l -1.17,0.157 c -0.613,-1.895 -2.204,-4.236 -5.428,-4.236 -0.156,0 -0.316,0.006 -0.477,0.016 -3.004,0.21 -4.336,2.529 -4.783,4.359 l -11.336,0 0,-17.215 c 0,-1.215 -0.989,-2.204 -2.203,-2.204 l -5.647,0 c -1.215,0 -2.203,0.988 -2.203,2.204 l 0,17.216 -10.1,0 c -0.121,-0.398 -0.304,-0.862 -0.583,-1.331 -0.692,-1.156 -2.089,-2.541 -4.82,-2.571 l -0.087,0 c -3.183,0 -4.76,2.036 -5.257,3.902 l -20.92,0 -5.167,-0.861 -2.13,-8.15 1.099,-12.359 -0.034,-0.175 c -10e-4,-0.002 -0.008,-0.222 0.221,-0.412 0.175,-0.147 0.285,-0.227 0.347,-0.269 0.057,0.003 0.119,0.005 0.192,0.005 10e-4,0 10e-4,0 0.002,0 l 70.104,-0.252 0.076,0.017 0.132,-0.034 c 0.01,-10e-4 0.023,-10e-4 0.042,-10e-4 0.283,0 0.7,0.111 1.086,0.636 0.992,1.354 10.272,14.407 10.365,14.538 l 0.015,0.049 0.086,0.077 c 0.087,0.117 0.437,0.668 0.134,1.701 z"
       id="path19"
       inkscape:connector-curvature="0" /><path
       d="m 24.918,40.997 -10.926,0 c -1.216,0 -2.204,0.989 -2.204,2.204 l 0,3.168 c 0,1.215 0.988,2.204 2.204,2.204 l 10.926,0 c 1.216,0 2.204,-0.989 2.204,-2.204 l 0,-3.169 c 0,-1.215 -0.988,-2.203 -2.204,-2.203 z"
       id="path21"
       inkscape:connector-curvature="0" /><path
       d="m 55.587,40.538 -3.995,0 c -1.215,0 -2.204,0.989 -2.204,2.204 l 0,1.102 c 0,1.215 0.988,2.204 2.204,2.204 l 3.995,0 c 1.214,0 2.203,-0.989 2.203,-2.204 l 0,-1.102 c 0,-1.216 -0.989,-2.204 -2.203,-2.204 z"
       id="path23"
       inkscape:connector-curvature="0" /><path
       d="m 74.18,40.216 -1.653,0 c -1.215,0 -2.204,0.988 -2.204,2.204 l 0,3.03 c 0,1.215 0.989,2.204 2.204,2.204 l 1.653,0 c 1.215,0 2.203,-0.989 2.203,-2.204 l 0,-3.03 c 0,-1.215 -0.988,-2.204 -2.203,-2.204 z"
       id="path25"
       inkscape:connector-curvature="0" /><path
       d="m 84.918,41.891 -0.015,-0.027 c -0.607,-1 -1.224,-1.667 -2.261,-1.667 -0.083,0 -0.167,0.004 -0.255,0.01 -0.04,0.003 -0.083,0.006 -0.14,0.006 l -2.238,0.021 c -1.215,0 -2.203,0.988 -2.203,2.204 l 0,3.03 c 0,1.215 0.988,2.204 2.203,2.204 l 4.98,0 c 0.732,0 1.346,-0.318 1.681,-0.871 0.33,-0.541 0.33,-1.213 0,-1.845 l -1.752,-3.065 z"
       id="path27"
       inkscape:connector-curvature="0" /></g></svg>