<?xml version="1.0" encoding="UTF-8" standalone="no"?>
<svg
   xmlns:dc="http://purl.org/dc/elements/1.1/"
   xmlns:cc="http://creativecommons.org/ns#"
   xmlns:rdf="http://www.w3.org/1999/02/22-rdf-syntax-ns#"
   xmlns:svg="http://www.w3.org/2000/svg"
   xmlns="http://www.w3.org/2000/svg"
   xmlns:sodipodi="http://sodipodi.sourceforge.net/DTD/sodipodi-0.dtd"
   xmlns:inkscape="http://www.inkscape.org/namespaces/inkscape"
   version="1.1"
   id="Your_Icon"
   x="0px"
   y="0px"
   width="99.999962"
   height="101.33696"
   viewBox="5 -10 99.999962 136.8049"
   enable-background="new 0 0 100 100"
   xml:space="preserve"
   inkscape:version="0.91 r13725"
   sodipodi:docname="service.svg"><metadata
     id="metadata13"><rdf:RDF><cc:Work
         rdf:about=""><dc:format>image/svg+xml</dc:format><dc:type
           rdf:resource="http://purl.org/dc/dcmitype/StillImage" /><dc:title></dc:title></cc:Work></rdf:RDF></metadata><defs
     id="defs11" /><sodipodi:namedview
     pagecolor="#ffffff"
     bordercolor="#666666"
     borderopacity="1"
     objecttolerance="10"
     gridtolerance="10"
     guidetolerance="10"
     inkscape:pageopacity="0"
     inkscape:pageshadow="2"
     inkscape:window-width="1145"
     inkscape:window-height="637"
     id="namedview9"
     showgrid="false"
     fit-margin-top="0"
     fit-margin-left="0"
     fit-margin-right="0"
     fit-margin-bottom="0"
     showborder="false"
     inkscape:zoom="3.337544"
     inkscape:cx="89.026578"
     inkscape:cy="45.236949"
     inkscape:window-x="0"
     inkscape:window-y="0"
     inkscape:window-maximized="0"
     inkscape:current-layer="Your_Icon" /><path
     d="m 67.076476,32.763606 c -0.631111,0.574003 -10.926563,9.780021 -23.652743,21.157586 2.028047,2.470264 4.404596,5.125029 7.214577,7.936474 3.583128,3.569949 6.91879,6.460467 9.933771,8.800408 12.276642,-13.732151 22.367093,-25.013072 22.885453,-25.587076 1.376437,-1.51408 2.47905,-1.052827 3.076482,-0.882969 10.097771,2.858302 21.491444,0.339716 26.691154,-10.501918 4.80142,-10.017236 0.87565,-17.741387 -2.3253,-23.077276 -0.76729,-1.295899 -2.00022,-0.51836 -2.32237,0.161072 -0.33971,0.688219 -6.10464,12.721788 -6.10464,12.721788 -1.54044,3.222911 -5.312463,5.636068 -12.859433,2.023654 -7.545508,-3.619735 -8.008225,-8.072653 -6.46193,-11.286779 0,0 5.38421,-11.223813 6.104642,-12.720322 0.714576,-1.50675906 -0.377788,-1.88747506 -1.033791,-1.79815306 -6.179322,0.80829 -14.694192,2.59912206 -19.502934,12.63100006 -2.761659,5.750283 -2.594729,11.384887 -0.55936,16.332737 0.30018,0.745326 0.647218,2.5508 -1.083578,4.089774 z M 21.030282,91.468622 c -3.032553,-3.036946 -6.007999,-6.24375 -8.88973,-9.570626 -11.0568861,9.886915 -19.3696839,17.321135 -19.3696839,17.321135 -0.4275739,0.386573 -0.8492906,0.809749 -1.2461143,1.237329 -5.8220318,6.51903 -5.2597428,16.50991 1.2461143,22.32609 6.50732329,5.82057 16.4952736,5.25535 22.3129159,-1.24904 0,0 7.462043,-8.34794 17.449993,-19.52344 -4.01363,-3.391302 -7.888153,-6.929036 -11.503495,-10.54145 z M -0.14780531,-2.290131 C -11.860693,9.621902 -12.499125,24.698273 -12.499125,24.698273 c 2.927123,14.623906 19.2627877,41.271131 39.14644,61.143067 19.874864,19.88804 46.516232,36.22663 61.150387,39.14058 0,0 15.079308,-0.62379 26.981088,-12.34839 l 0.0102,0.0161 7.0169,-7.01104 c 0.92543,-0.92397 0.92543,-2.45416 0,-3.37813 L 92.051477,72.504549 c -0.93422,-0.92397 -2.455621,-0.92397 -3.378127,0 l -7.013969,7.018362 0.01757,0.02636 -6.593717,8.169297 c 0,0 -12.502143,-2.695767 -30.057566,-20.251187 C 27.464391,49.913419 24.767161,37.411276 24.767161,37.411276 l 8.175154,-6.606896 0.0205,0.03221 0.235752,-0.235751 0.0029,-0.0088 0,0 6.781146,-6.769432 c 0.926899,-0.940076 0.926899,-2.452692 0,-3.385448 L 10.229648,-9.302636 c -0.9268993,-0.929826 -2.4439073,-0.929826 -3.3678773,0 l -7.01689751,7.012505 0.00732,0 z"
     id="path3"
     inkscape:connector-curvature="0" /></svg>